# xmcd CD database file
#
# Track frame offsets:
#	150
#	8686
#	41533
#	64757
#	87466
#	113010
#	128819
#	164345
#	199678
#	236505
#	267627
#	310287
#
# Disc length: 4608 seconds
#
# Revision: 0
# Processed by: cddbd v1.5.2PL0 Copyright (c) Steve Scherf et al.
# Submitted via: CDex 1.70beta2
#
DISCID=9f11fe0c
DTITLE=Dizzy Gillespie and Charlie Parker - Bebop Story Vol. 5 1951-53 CD 015
DYEAR=2008
DGENRE=Jazz
TTITLE0=Intro
TTITLE1=Blue'n' Boggie
TTITLE2=Anthropology
TTITLE3='Round Midnight
TTITLE4=Night In Tunesia and Jumpin' With Symphony Sid
TTITLE5=Hot House
TTITLE6=Perdido
TTITLE7=Salt Peanuts
TTITLE8=All The Things You Are
TTITLE9=Wee
TTITLE10=Hot House
TTITLE11=A Night In Tunesia
EXTD=YEAR: 2008
EXTT0=
EXTT1=
EXTT2=
EXTT3=
EXTT4=
EXTT5=
EXTT6=
EXTT7=
EXTT8=
EXTT9=
EXTT10=
EXTT11=
PLAYORDER=
